# xmcd
#
# Track frame offsets: 
#        150
#        18922
#        31415
#        48304
#        61407
#        68442
#        80612
#        95098
#        115432
#        121240
#        138357
#        151194
#        171222
#
# Disc length: 2567 seconds
#
# Revision: 0
# Processed by: cddbd v1.5.2PL0 Copyright (c) Steve Scherf et al.
# Submitted via: ExactAudioCopy v0.99pb5
#
DISCID=a60a050d
DTITLE=Atmosphere - Strictly Leakage
DYEAR=2007
DGENRE=Hip-Hop
TTITLE0=YGM
TTITLE1=Little Math You
TTITLE2=Full Moon
TTITLE3=The Things That Hate Us
TTITLE4=Jewelry
TTITLE5=Get It To Get Het
TTITLE6=Domestic Dog
TTITLE7=Crewed Up
TTITLE8=What They Sittin For?
TTITLE9=That's Not Beef, That's Pork
TTITLE10=The Old Style
TTITLE11=You Played Yourself
TTITLE12=Road To The Riches
EXTD=
EXTT0=
EXTT1=
EXTT2=
EXTT3=
EXTT4=
EXTT5=
EXTT6=
EXTT7=
EXTT8=
EXTT9=
EXTT10=
EXTT11=
EXTT12=
PLAYORDER=
